<?xml version="1.0" encoding="UTF-8"?><svg xmlns="http://www.w3.org/2000/svg" viewBox="0 0 717.41 134.23"><defs><style>.cls-1{fill:#fff;}.cls-1,.cls-2{stroke-width:0px;}.cls-2{fill:#575757;}</style></defs><g id="Falxx_Luv."><polygon class="cls-2" points="169.87 129.56 150.73 129.56 150.73 33.92 217.69 33.92 217.69 53.06 169.87 53.06 169.87 72.2 198.55 72.2 198.55 91.35 169.87 91.35 169.87 129.56"/><path class="cls-2" d="m283.35,129.56h-4.4l-7.07-9.8c-1.73,1.56-3.57,3.01-5.5,4.37-1.93,1.36-3.97,2.53-6.1,3.53s-4.32,1.79-6.57,2.37c-2.25.58-4.53.87-6.84.87-5.03,0-9.75-.85-14.17-2.53-4.43-1.69-8.29-4.15-11.61-7.37-3.31-3.22-5.93-7.17-7.84-11.84-1.91-4.67-2.87-9.98-2.87-15.94,0-5.56.96-10.66,2.87-15.31,1.91-4.65,4.52-8.64,7.84-11.97,3.31-3.34,7.18-5.93,11.61-7.77,4.42-1.84,9.15-2.77,14.17-2.77,2.31,0,4.6.29,6.87.87,2.27.58,4.47,1.38,6.6,2.4,2.13,1.02,4.17,2.22,6.1,3.6,1.93,1.38,3.75,2.87,5.44,4.47l7.07-8.47h4.4v71.3Zm-18.34-36.35c0-2.49-.48-4.9-1.43-7.24-.96-2.33-2.26-4.4-3.9-6.2-1.65-1.8-3.57-3.25-5.77-4.33-2.2-1.09-4.55-1.63-7.04-1.63s-4.84.42-7.04,1.27c-2.2.84-4.11,2.09-5.74,3.73-1.62,1.65-2.9,3.68-3.83,6.1-.93,2.42-1.4,5.19-1.4,8.3s.47,5.88,1.4,8.3c.93,2.42,2.21,4.46,3.83,6.1,1.62,1.65,3.54,2.89,5.74,3.73,2.2.85,4.55,1.27,7.04,1.27s4.84-.54,7.04-1.63c2.2-1.09,4.12-2.54,5.77-4.34,1.64-1.8,2.94-3.87,3.9-6.2.96-2.33,1.43-4.75,1.43-7.24Z"/><rect class="cls-2" x="294.19" y="29.72" width="18.34" height="99.85"/><polygon class="cls-2" points="392.17 129.56 369.89 129.56 355.69 107.69 341.35 129.56 319.07 129.56 345.15 92.95 319.07 57.73 341.35 57.73 355.69 78.21 369.89 57.73 392.17 57.73 366.02 92.95 392.17 129.56"/><polygon class="cls-2" points="464.4 129.56 442.12 129.56 427.92 107.69 413.58 129.56 391.3 129.56 417.38 92.95 391.3 57.73 413.58 57.73 427.92 78.21 442.12 57.73 464.4 57.73 438.26 92.95 464.4 129.56"/><polygon class="cls-2" points="551.75 129.56 484.78 129.56 484.78 33.92 503.92 33.92 503.92 110.42 551.75 110.42 551.75 129.56"/><path class="cls-2" d="m610.17,121.23c-1.47,1.33-3.03,2.59-4.7,3.77-1.67,1.18-3.41,2.2-5.24,3.07s-3.7,1.56-5.64,2.07c-1.93.51-3.9.77-5.9.77-4.4,0-8.54-.78-12.41-2.33-3.87-1.56-7.26-3.77-10.17-6.64-2.91-2.87-5.2-6.36-6.87-10.47-1.67-4.11-2.5-8.73-2.5-13.84v-39.49h18.14v39.49c0,2.4.37,4.55,1.1,6.44.73,1.89,1.72,3.48,2.97,4.77,1.24,1.29,2.7,2.27,4.37,2.94s3.46,1,5.37,1,3.64-.43,5.3-1.3,3.12-2.01,4.37-3.44c1.24-1.42,2.22-3.03,2.93-4.84s1.07-3.66,1.07-5.57v-39.49h18.21v71.43h-4.4l-6-8.34Z"/><polygon class="cls-2" points="654.73 129.56 627.51 58.13 648.26 58.13 663.86 102.68 679.4 58.13 700.21 58.13 673 129.56 654.73 129.56"/><path class="cls-2" d="m717.41,122.76c0,1.6-.29,3.1-.87,4.5-.58,1.4-1.38,2.61-2.4,3.64-1.02,1.02-2.22,1.83-3.6,2.43-1.38.6-2.87.9-4.47.9s-3.03-.3-4.44-.9c-1.4-.6-2.62-1.41-3.67-2.43-1.05-1.02-1.87-2.24-2.47-3.64-.6-1.4-.9-2.9-.9-4.5s.3-3.02.9-4.4c.6-1.38,1.42-2.58,2.47-3.6,1.04-1.02,2.27-1.83,3.67-2.43,1.4-.6,2.88-.9,4.44-.9s3.09.3,4.47.9c1.38.6,2.58,1.41,3.6,2.43s1.82,2.22,2.4,3.6c.58,1.38.87,2.85.87,4.4Z"/></g><g id="logo"><path class="cls-2" d="m123.03,55.64v63.47l-23.64-31.73,23.64-31.73m.71-2.14l-25.23,33.87,25.23,33.87V53.51h0Z"/><path class="cls-2" d="m52.13.71L3.35,66.18V.71h48.78m1.41-.71H2.64v68.32L53.54,0h0Z"/><polygon class="cls-1" points=".99 86.88 65.35 .5 150 .5 130.35 26.87 80.89 26.87 36.18 86.88 .99 86.88"/><path class="cls-2" d="m149.01.99l-18.91,25.38h-49.46l-.3.4-44.41,59.61H1.98L65.6.99h83.42m1.98-.99h-85.89L0,87.38h36.43l44.71-60.01h49.46L150.99,0h0Z"/><polygon class="cls-1" points="81.38 129.29 50.4 87.36 89.04 35.48 123.93 35.48 85.27 87.38 116.5 129.29 81.38 129.29"/><path class="cls-2" d="m122.95,35.98l-37.85,50.8-.44.59.44.59,30.41,40.82h-33.88l-30.61-41.43,38.28-51.38h33.65m1.98-.99h-36.13l-39.01,52.37,31.35,42.43h36.36l-31.59-42.41,39.03-52.39h0Z"/><path class="cls-2" d="m123.03,55.64v63.47l-23.64-31.73,23.64-31.73m.71-2.14l-25.23,33.87,25.23,33.87V53.51h0Z"/><polygon class="cls-2" points="100.63 87.38 122.04 58.64 122.04 116.12 100.63 87.38"/><path class="cls-2" d="m52.13.71L3.35,66.18V.71h48.78m1.41-.71H2.64v68.32L53.54,0h0Z"/><polygon class="cls-2" points="4.34 1.7 50.15 1.7 4.34 63.19 4.34 1.7"/></g></svg>